<svg id="Capa_1" enable-background="new 0 0 512 512" height="512" viewBox="0 0 512 512" width="512" xmlns="http://www.w3.org/2000/svg"><g><g><path d="m426.5 421.5h-41v-186h41c30.376 0 55 24.624 55 55v76c0 30.376-24.624 55-55 55z" fill="#ffc269"/><path d="m315.5 504.5h-148c-38.66 0-70-31.34-70-70v-267c0-8.284 6.716-15 15-15h258c8.284 0 15 6.716 15 15v267c0 38.66-31.34 70-70 70z" fill="#ffe07d"/><path d="m385.5 167.5v267c0 38.66-31.34 70-70 70h-30c38.66 0 70-31.34 70-70v-267c0-8.28-6.72-15-15-15h30c8.28 0 15 6.72 15 15z" fill="#ffd064"/><path d="m421.5 391.5h-36v-126h36c16.569 0 30 13.431 30 30v66c0 16.569-13.431 30-30 30z" fill="#fff"/><path d="m97.5 167.5v15h13.62c4.754 0 9.222 2.276 12.017 6.121l6.901 9.495c9.751 13.416 29.576 13.926 40.005 1.03l2.276-2.815c5.825-7.204 16.75-7.377 22.801-.361l4.424 5.13c10.388 12.045 29.303 11.22 38.605-1.682l.514-.713c5.869-8.14 17.699-8.269 23.638-.428.063.083.126.166.188.248 1.956 2.582 3.012 5.725 3.012 8.964v52.594c0 8.077 6.207 15.021 14.275 15.4 8.614.406 15.725-6.458 15.725-14.983v-33c0-8.284 6.716-15 15-15 8.284 0 15 6.716 15 15v12.576c0 8.077 6.207 15.027 14.275 15.407 8.614.406 15.725-6.458 15.725-14.983v-43c0-8.284 6.716-15 15-15h15v-15c0-8.284-6.716-15-15-15h-258c-8.285 0-15.001 6.716-15.001 15z" fill="#d19a6e"/><path d="m385.5 167.5v15h-15c-8.28 0-15 6.72-15 15v-30c0-8.28-6.72-15-15-15h30c8.28 0 15 6.72 15 15z" fill="#bc845e"/><path d="m203.183 504.5c-49.375 0-64.317-28.796-64.317-64.317 0-35.521 10.349-64.317 64.317-64.317 47.943-.572 64.317 28.796 64.317 64.317 0 51.053-28.796 64.317-64.317 64.317z" fill="#bc845e"/><path d="m267.5 440.18c0 25.53-7.2 41.61-18.84 51.31-11.64 9.69-27.72 13.01-45.48 13.01-5.29 0-10.19-.33-14.71-.96 11.62-1.57 22-5.23 30.19-12.05 11.64-9.7 18.84-25.78 18.84-51.31 0-31.58-12.94-58.31-49.54-63.43 4.64-.58 9.7-.88 15.22-.88.47-.01.93-.01 1.39-.01 46.88 0 62.93 29.15 62.93 64.32z" fill="#ad775c"/><path d="m201 470c-15.051 0-20-8.954-20-20 0-11.046 4.032-20 20-20 15.522 0 20 8.954 20 20 0 11.046-3.561 20-20 20z" fill="#f4e5e0"/><path d="m114 504.5c-64.102 0-83.5-37.384-83.5-83.5 0-46.116 13.436-83.5 83.5-83.5 62.242-.743 83.5 37.384 83.5 83.5 0 66.28-37.384 83.5-83.5 83.5z" fill="#d19a6e"/><path d="m197.5 421c0 33.14-9.34 54.02-24.46 66.6-15.1 12.6-35.98 16.9-59.04 16.9-5.17 0-10.06-.24-14.66-.72 16.91-1.66 32.03-6.44 43.7-16.18 15.12-12.58 24.46-33.46 24.46-66.6 0-42.21-17.81-77.72-68.54-82.86 4.7-.42 9.7-.64 15.04-.64.59-.01 1.19-.01 1.77-.01 60.87 0 81.73 37.83 81.73 83.51z" fill="#bc845e"/><path d="m197.18 411.52c-8.01 5.06-17.51 7.98-27.68 7.98-28.72 0-52-10.64-52-52 0-12.42 2.36-22.2 6.51-29.76 50.52 3.05 70.51 34.53 73.17 73.78z" fill="#fcf1f2"/><path d="m197.18 411.52c-8.01 5.06-17.51 7.98-27.68 7.98-.67 0-1.34-.01-2.01-.02-.35-34.57-12.87-64.42-45.96-76.39.73-1.9 1.56-3.68 2.48-5.35 50.52 3.05 70.51 34.53 73.17 73.78z" fill="#f4e5e0"/><path d="m93 457c-8.284 0-15-3.35-15-15 0-8.284 2.93-15 15-15 11.777 0 15 6.716 15 15 0 8.284-2.917 15-15 15z" fill="#fcf1f2"/></g><g><path d="m426.5 228h-33.5v-60.5c0-12.406-10.094-22.5-22.5-22.5h-206.551c-4.143 0-7.5 3.357-7.5 7.5s3.357 7.5 7.5 7.5h206.551c4.136 0 7.5 3.364 7.5 7.5v7.5h-7.5c-12.406 0-22.5 10.094-22.5 22.5v43c.082 4.17-3.684 7.792-7.873 7.49-3.93-.185-7.127-3.735-7.127-7.914v-12.576c0-12.406-10.094-22.5-22.5-22.5s-22.5 10.094-22.5 22.5v33c.082 4.175-3.681 7.779-7.872 7.49-3.931-.185-7.128-3.732-7.128-7.908v-52.594c0-4.842-1.61-9.634-4.512-13.464-.043-.057-.167-.222-.209-.276-4.275-5.645-10.808-8.823-17.854-8.75-7.131.084-13.636 3.481-17.847 9.321l-.515.713c-3.083 4.276-7.872 6.86-13.139 7.09-5.26.212-10.261-1.929-13.701-5.919l-4.425-5.132c-4.34-5.032-10.679-7.866-17.283-7.752-6.644.105-12.851 3.129-17.029 8.296l-2.276 2.815c-3.492 4.318-8.673 6.751-14.232 6.57-5.552-.143-10.608-2.802-13.874-7.294l-6.9-9.495c-4.192-5.769-10.953-9.212-18.084-9.212h-6.12v-7.5c0-4.136 3.364-7.5 7.5-7.5h16.449c4.143 0 7.5-3.357 7.5-7.5s-3.357-7.5-7.5-7.5h-16.449c-12.406 0-22.5 10.094-22.5 22.5v164.171c-58.793 8.884-67 51.592-67 89.33 0 59.295 31.226 90.738 90.298 90.988.078.002.154.012.233.012h201.969c42.733 0 77.5-34.767 77.5-77.5v-5.5h33.5c34.463 0 62.5-28.037 62.5-62.5v-76c0-34.463-28.037-62.5-62.5-62.5zm-388.5 193c0-45.35 12.782-75.637 74.991-75.993-1.971 6.684-2.991 14.199-2.991 22.493 0 39.481 20.019 59.5 59.5 59.5 7.031 0 13.953-1.241 20.466-3.627-.708 50.879-24.21 73.627-75.966 73.627-51.14 0-76-24.859-76-76zm205.861 64.725c-9.106 7.587-22.413 11.275-40.678 11.275-9.706 0-18.201-1.204-25.411-3.575.024-.02.049-.038.073-.057 5.66-4.716 10.441-10.356 14.341-16.894 2.695.674 5.635 1.027 8.814 1.027 12.545 0 27.5-4.771 27.5-27.5 0-16.105-8.517-25.874-23.53-27.309.006-.568.03-1.118.03-1.691 0-14.043-1.846-26.58-5.471-37.582 1.225-.033 2.47-.053 3.744-.053.427-.005.853-.007 1.275-.007 17.953 0 31.708 4.599 40.896 13.678 9.657 9.543 14.555 24.061 14.555 43.147.001 21.595-5.278 36.492-16.138 45.541zm-39.729-48.071c6.848.74 9.368 4.25 9.368 12.346 0 8.644-1.805 12.5-12.5 12.5-.805 0-1.57-.032-2.296-.095 2.636-7.435 4.453-15.686 5.428-24.751zm-14.827-30.319c-6.115 3.049-12.883 4.665-19.805 4.665-31.191 0-44.5-13.309-44.5-44.5 0-8.482 1.207-15.818 3.587-21.864 17.759 1.875 31.799 7.822 41.852 17.756 10.543 10.418 16.864 25.162 18.866 43.943zm188.695 27.165c0 34.463-28.037 62.5-62.5 62.5h-61.892c14.214-11.91 21.392-30.874 21.392-56.817 0-23.244-6.396-41.351-19.012-53.816-12.361-12.215-30.18-18.294-52.806-18-3.481 0-6.842.127-10.068.357-3.348-5.959-7.383-11.308-12.132-16.001-15.607-15.422-38.15-23.067-66.982-22.723-3.107 0-6.098.081-9 .222v-140.222h6.12c2.347 0 4.57 1.133 5.95 3.03l6.9 9.495c6.03 8.297 15.369 13.207 25.622 13.471 10.231.261 19.833-4.158 26.282-12.134l2.276-2.815c3.977-3.772 7.181-3.838 11.288-.18l4.425 5.132c6.46 7.49 15.822 11.533 25.714 11.108 9.883-.43 18.869-5.278 24.654-13.303l.514-.713c2.728-4.046 9.078-4.115 11.764-.038.975 1.286 1.49 2.82 1.49 4.435v52.594c0 12.271 9.41 22.326 21.422 22.892.368.018.733.026 1.099.026 5.81 0 11.281-2.186 15.509-6.218 4.43-4.227 6.971-10.161 6.971-16.282v-33c0-4.136 3.364-7.5 7.5-7.5s7.5 3.364 7.5 7.5v12.576c0 12.274 9.409 22.332 21.421 22.897 6.231.293 12.115-1.905 16.608-6.192 4.43-4.226 6.971-10.16 6.971-16.281v-43c0-4.136 3.364-7.5 7.5-7.5h7.5v166.5c0 4.143 3.357 7.5 7.5 7.5s7.5-3.357 7.5-7.5v-83.5h28.5c12.406 0 22.5 10.094 22.5 22.5v66c0 12.406-10.094 22.5-22.5 22.5h-36c-4.143 0-7.5 3.357-7.5 7.5zm96-68c0 26.191-21.309 47.5-47.5 47.5h-33.5v-15h28.5c20.678 0 37.5-16.822 37.5-37.5v-66c0-20.678-16.822-37.5-37.5-37.5h-28.5v-15h33.5c26.191 0 47.5 21.309 47.5 47.5z"/><path d="m93 419.5c-14.51 0-22.5 7.99-22.5 22.5 0 14.089 8.411 22.5 22.5 22.5 14.51 0 22.5-7.99 22.5-22.5 0-14.299-8.201-22.5-22.5-22.5zm0 30c-5.888 0-7.5-1.612-7.5-7.5 0-5.719 1.034-7.5 7.5-7.5 5.958 0 7.5 1.542 7.5 7.5 0 5.719-1.034 7.5-7.5 7.5z"/><path d="m295.838 61.475 22.608 16.295c4.513 3.107 5.523 9.896 2.109 14.182l-17.521 23.004c-2.51 3.296-1.873 8.002 1.422 10.512 3.267 2.495 7.988 1.89 10.512-1.422l17.521-23.005c4.123-5.413 5.842-12.101 4.841-18.831s-4.593-12.629-10.112-16.607l-22.609-16.295c-4.509-3.106-5.521-9.886-2.115-14.173l17.55-23.097c2.506-3.298 1.864-8.003-1.435-10.509-3.297-2.506-8.003-1.864-10.509 1.435l-17.55 23.096c-4.113 5.414-5.826 12.1-4.822 18.824s4.595 12.616 10.11 16.591z"/><path d="m155.782 61.475 22.608 16.295c4.513 3.107 5.523 9.896 2.109 14.182l-17.521 23.004c-2.51 3.296-1.873 8.002 1.422 10.512 3.267 2.495 7.988 1.89 10.512-1.422l17.521-23.005c4.123-5.413 5.842-12.101 4.841-18.831s-4.593-12.629-10.112-16.607l-22.609-16.295c-4.509-3.106-5.521-9.886-2.115-14.173l17.55-23.097c2.506-3.298 1.864-8.003-1.435-10.509-3.298-2.506-8.003-1.864-10.509 1.435l-17.55 23.096c-4.113 5.414-5.826 12.1-4.822 18.824 1.005 6.724 4.596 12.616 10.11 16.591z"/><path d="m225.811 61.475 22.607 16.295c4.513 3.109 5.524 9.895 2.109 14.183l-17.52 23.004c-2.51 3.295-1.873 8.001 1.423 10.511 3.266 2.495 7.988 1.89 10.511-1.423l17.52-23.003c4.123-5.413 5.843-12.101 4.842-18.831s-4.592-12.629-10.112-16.608l-22.608-16.296c-4.51-3.104-5.521-9.885-2.116-14.172l17.55-23.097c2.506-3.298 1.864-8.003-1.435-10.509-3.297-2.506-8.003-1.864-10.509 1.435l-17.55 23.097c-4.114 5.414-5.826 12.1-4.821 18.825 1.003 6.723 4.594 12.615 10.109 16.589z"/></g></g></svg>