<svg width="24" height="24" viewBox="0 0 24 24" fill="none" xmlns="http://www.w3.org/2000/svg">
<path d="M3 8.40009V21.0001C3 21.2653 3.10536 21.5197 3.29289 21.7072C3.48043 21.8947 3.73478 22.0001 4 22.0001H20C20.2652 22.0001 20.5196 21.8947 20.7071 21.7072C20.8946 21.5197 21 21.2653 21 21.0001V8.40009C21.0001 8.23646 20.96 8.07531 20.8833 7.93077C20.8066 7.78623 20.6956 7.66273 20.56 7.5711L12.56 2.1711C12.3946 2.05932 12.1996 1.99959 12 1.99959C11.8004 1.99959 11.6054 2.05932 11.44 2.1711L3.44 7.5711C3.30443 7.66273 3.19342 7.78623 3.11671 7.93077C3.03999 8.07531 2.99992 8.23646 3 8.40009ZM14 20.0001H10V14.0001H14V20.0001ZM5 8.9321L12 4.2071L19 8.9321V20.0001H16V13.0001C16 12.7349 15.8946 12.4805 15.7071 12.293C15.5196 12.1055 15.2652 12.0001 15 12.0001H9C8.73478 12.0001 8.48043 12.1055 8.29289 12.293C8.10536 12.4805 8 12.7349 8 13.0001V20.0001H5V8.9321Z" fill="#04764E"/>
</svg>
