<svg width="24" height="24" viewBox="0 0 24 24" fill="none" xmlns="http://www.w3.org/2000/svg">
<path d="M16.65 3.10017C16.5318 3.04166 16.4033 3.00701 16.2717 2.99819C16.1401 2.98937 16.0081 3.00655 15.8831 3.04876C15.7582 3.09096 15.6428 3.15736 15.5435 3.24416C15.4442 3.33097 15.363 3.43648 15.3045 3.55467C15.246 3.67286 15.2114 3.80141 15.2025 3.93299C15.1937 4.06458 15.2109 4.19661 15.2531 4.32155C15.2953 4.44649 15.3617 4.56189 15.4485 4.66117C15.5353 4.76045 15.6408 4.84166 15.759 4.90017C17.4682 5.74798 18.8405 7.14866 19.6532 8.87476C20.4659 10.6009 20.6712 12.551 20.2358 14.4085C19.8004 16.266 18.7499 17.9218 17.2548 19.107C15.7597 20.2921 13.9079 20.9371 12 20.9371C10.0922 20.9371 8.24035 20.2921 6.74526 19.107C5.25018 17.9218 4.19964 16.266 3.76424 14.4085C3.32885 12.551 3.53417 10.6009 4.34687 8.87476C5.15956 7.14866 6.5319 5.74798 8.24102 4.90017C8.47972 4.78201 8.6617 4.57388 8.74694 4.32155C8.83217 4.06922 8.81368 3.79336 8.69553 3.55467C8.57737 3.31597 8.36924 3.13399 8.11691 3.04876C7.86457 2.96352 7.58872 2.98201 7.35002 3.10017C5.23724 4.14884 3.54096 5.88088 2.5366 8.01508C1.53223 10.1493 1.27875 12.5603 1.81731 14.8567C2.35587 17.1531 3.65485 19.2001 5.50334 20.6652C7.35184 22.1303 9.64131 22.9276 12 22.9276C14.3587 22.9276 16.6482 22.1303 18.4967 20.6652C20.3452 19.2001 21.6442 17.1531 22.1827 14.8567C22.7213 12.5603 22.4678 10.1493 21.4635 8.01508C20.4591 5.88088 18.7628 4.14884 16.65 3.10017Z" fill="#FF8484"/>
<path d="M12 13.0002C12.2652 13.0002 12.5196 12.8948 12.7071 12.7073C12.8947 12.5197 13 12.2654 13 12.0002V2.00017C13 1.73495 12.8947 1.48059 12.7071 1.29306C12.5196 1.10552 12.2652 1.00016 12 1.00016C11.7348 1.00016 11.4804 1.10552 11.2929 1.29306C11.1054 1.48059 11 1.73495 11 2.00017V12.0002C11 12.2654 11.1054 12.5197 11.2929 12.7073C11.4804 12.8948 11.7348 13.0002 12 13.0002Z" fill="#FF8484"/>
</svg>
