<svg width="24" height="24" viewBox="0 0 24 24" fill="none" xmlns="http://www.w3.org/2000/svg">
<path d="M9.48457 7.02438C10.0416 5.74586 9.75992 4.25673 8.77447 3.26995L6.49912 0.995688C5.74323 0.23078 4.66561 -0.12394 3.60315 0.0423647C2.52869 0.200165 1.59539 0.86444 1.09435 1.82797C-0.00580866 3.89842 -0.28881 6.30639 0.301383 8.57545C1.75537 14.3347 9.6711 22.2559 15.4293 23.699C16.2065 23.8961 17.0052 23.9965 17.8071 23.9979C19.3309 23.9969 20.8313 23.6224 22.1767 22.9071C23.8369 22.0413 24.4808 19.9937 23.615 18.3336C23.4561 18.0288 23.2518 17.75 23.009 17.5067L20.7347 15.2313C19.7476 14.2457 18.258 13.9641 16.9792 14.5212C16.3824 14.7784 15.8381 15.1434 15.3736 15.5978C14.8173 16.1574 12.7656 15.3469 10.7116 13.2941C8.65768 11.2413 7.84945 9.18955 8.40246 8.63106C8.85876 8.16645 9.22557 7.62185 9.48457 7.02438ZM9.16609 14.8387C11.6672 17.3376 15.0312 19.0228 16.9106 17.1424C17.1874 16.8774 17.51 16.6648 17.8628 16.5152C18.3159 16.3221 18.8409 16.4254 19.187 16.7759L21.4613 19.0501C21.7323 19.3181 21.858 19.7 21.7994 20.0766C21.7424 20.4636 21.5024 20.7993 21.1547 20.9786C19.562 21.8345 17.7031 22.0513 15.9561 21.5851C11.0084 20.3372 3.66858 12.9975 2.42078 8.04318C1.95503 6.29467 2.17226 4.43442 3.02836 2.84021C3.20898 2.49446 3.54447 2.25634 3.93042 2.19993C3.99066 2.19034 4.05156 2.18557 4.1126 2.18576C4.4298 2.18566 4.73383 2.31252 4.95683 2.53807L7.23109 4.81234C7.58104 5.15822 7.68442 5.68265 7.4918 6.13545C7.34283 6.49055 7.13027 6.8155 6.86461 7.09425C4.98404 8.96925 6.66712 12.3299 9.16609 14.8387Z" fill="white"/>
</svg>
