<svg width="24" height="24" viewBox="0 0 24 24" fill="none" xmlns="http://www.w3.org/2000/svg">
<g clip-path="url(#clip0)">
<path d="M9.65925 19.3102C11.8044 19.3103 13.8882 18.5946 15.5806 17.2764L21.9653 23.6612C22.4423 24.1218 23.2023 24.1086 23.663 23.6316C24.1123 23.1664 24.1123 22.4288 23.663 21.9636L17.2782 15.5788C20.5491 11.3682 19.7874 5.30335 15.5769 2.03244C11.3663 -1.23846 5.30149 -0.476784 2.03058 3.73376C-1.24033 7.9443 -0.478646 14.0092 3.73189 17.2801C5.42702 18.597 7.51269 19.3113 9.65925 19.3102ZM4.52915 4.52732C7.36245 1.69396 11.9561 1.69391 14.7895 4.52721C17.6229 7.36052 17.6229 11.9542 14.7896 14.7876C11.9563 17.6209 7.36261 17.621 4.52925 14.7877C4.5292 14.7876 4.5292 14.7876 4.52915 14.7876C1.69584 11.9749 1.67915 7.39796 4.49181 4.56465C4.50424 4.55217 4.51667 4.53974 4.52915 4.52732Z" fill="#C9C9C9"/>
</g>
<defs>
<clipPath id="clip0">
<rect width="24" height="24" fill="white"/>
</clipPath>
</defs>
</svg>
