<svg width="16" height="16" viewBox="0 0 16 16" fill="none" xmlns="http://www.w3.org/2000/svg">
<path d="M13.9992 1.33334H9.99924C9.82243 1.33334 9.65286 1.40358 9.52784 1.52861C9.40281 1.65363 9.33257 1.8232 9.33257 2.00001C9.33257 2.17682 9.40281 2.34639 9.52784 2.47141C9.65286 2.59644 9.82243 2.66668 9.99924 2.66668H12.3899L6.86124 8.19534C6.79757 8.25684 6.74678 8.3304 6.71184 8.41174C6.6769 8.49308 6.65851 8.58056 6.65774 8.66908C6.65697 8.7576 6.67384 8.84538 6.70736 8.92731C6.74088 9.00924 6.79038 9.08368 6.85298 9.14627C6.91557 9.20887 6.99001 9.25837 7.07194 9.29189C7.15387 9.32541 7.24165 9.34228 7.33017 9.34151C7.41869 9.34074 7.50617 9.32235 7.58751 9.28741C7.66885 9.25247 7.74241 9.20168 7.80391 9.13801L13.3326 3.60934V6.00001C13.3326 6.17682 13.4028 6.34639 13.5278 6.47141C13.6529 6.59644 13.8224 6.66668 13.9992 6.66668C14.1761 6.66668 14.3456 6.59644 14.4706 6.47141C14.5957 6.34639 14.6659 6.17682 14.6659 6.00001V2.00001C14.6659 1.8232 14.5957 1.65363 14.4706 1.52861C14.3456 1.40358 14.1761 1.33334 13.9992 1.33334Z" fill="white" fill-opacity="0.5"/>
<path d="M12.6668 7.05866C12.49 7.05866 12.3204 7.1289 12.1954 7.25392C12.0704 7.37895 12.0002 7.54852 12.0002 7.72533V12.5007C12 12.7214 11.9122 12.9331 11.7561 13.0893C11.6 13.2454 11.3883 13.3332 11.1675 13.3333H3.4995C3.27871 13.3332 3.06702 13.2454 2.91091 13.0893C2.75479 12.9331 2.66701 12.7214 2.66683 12.5007V4.83266C2.66701 4.61188 2.75479 4.40019 2.91091 4.24407C3.06702 4.08795 3.27871 4.00017 3.4995 3.99999H7.6475C7.82431 3.99999 7.99388 3.92975 8.1189 3.80473C8.24392 3.6797 8.31416 3.51013 8.31416 3.33332C8.31416 3.15651 8.24392 2.98694 8.1189 2.86192C7.99388 2.73689 7.82431 2.66666 7.6475 2.66666H3.4995C2.92525 2.66736 2.37473 2.89579 1.96868 3.30184C1.56263 3.70789 1.3342 4.25842 1.3335 4.83266V12.4993C1.33385 13.0738 1.56212 13.6247 1.96821 14.031C2.3743 14.4373 2.92502 14.666 3.4995 14.6667H11.1662C11.7406 14.6663 12.2915 14.438 12.6978 14.0319C13.1042 13.6259 13.3328 13.0751 13.3335 12.5007V7.72533C13.3335 7.54852 13.2633 7.37895 13.1382 7.25392C13.0132 7.1289 12.8436 7.05866 12.6668 7.05866Z" fill="white" fill-opacity="0.5"/>
</svg>
