<svg width="24" height="24" viewBox="0 0 24 24" fill="none" xmlns="http://www.w3.org/2000/svg">
<path d="M11.9999 22C13.7263 22.0016 15.4233 21.5535 16.9239 20.7L20.6839 21.953C20.786 21.9857 20.8927 22.0016 20.9999 22C21.1583 21.9999 21.3144 21.9621 21.4553 21.8899C21.5962 21.8177 21.718 21.713 21.8106 21.5845C21.9031 21.456 21.9639 21.3074 21.9877 21.1508C22.0116 20.9942 21.998 20.8343 21.9479 20.684L20.6999 16.924C21.7809 15.012 22.2019 12.7972 21.898 10.6219C21.5941 8.44663 20.5821 6.43204 19.0184 4.88955C17.4548 3.34706 15.4266 2.36257 13.2474 2.08826C11.0682 1.81395 8.85934 2.26509 6.96222 3.37196C5.06511 4.47883 3.58541 6.17978 2.75187 8.21187C1.91833 10.244 1.77736 12.494 2.35075 14.6143C2.92414 16.7345 4.17996 18.6069 5.92409 19.9419C7.66822 21.2768 9.80352 22.0002 11.9999 22ZM11.9999 4C13.4315 3.99799 14.8374 4.38072 16.0704 5.10814C17.3035 5.83557 18.3184 6.88096 19.009 8.13498C19.6997 9.389 20.0407 10.8056 19.9963 12.2365C19.952 13.6674 19.5239 15.0602 18.7569 16.269C18.6782 16.3946 18.6285 16.5361 18.6112 16.6832C18.5939 16.8304 18.6095 16.9796 18.6569 17.12L19.4229 19.42L17.1229 18.654C16.9826 18.6059 16.8333 18.59 16.6861 18.6073C16.5388 18.6246 16.3973 18.6747 16.2719 18.754C15.2234 19.4196 14.0343 19.832 12.7988 19.9584C11.5633 20.0849 10.3153 19.9219 9.15371 19.4825C7.9921 19.043 6.94875 18.3392 6.10629 17.4266C5.26384 16.5141 4.64541 15.4179 4.29999 14.225C3.95458 13.032 3.89165 11.775 4.1162 10.5535C4.34076 9.33206 4.84662 8.17963 5.59373 7.18752C6.34084 6.19541 7.30867 5.39087 8.42059 4.83761C9.53251 4.28436 10.758 3.99758 11.9999 4Z" fill="white"/>
<path d="M8 10.5H16C16.2652 10.5 16.5196 10.3946 16.7071 10.2071C16.8946 10.0196 17 9.76521 17 9.5C17 9.23478 16.8946 8.98043 16.7071 8.79289C16.5196 8.60536 16.2652 8.5 16 8.5H8C7.73478 8.5 7.48043 8.60536 7.29289 8.79289C7.10536 8.98043 7 9.23478 7 9.5C7 9.76521 7.10536 10.0196 7.29289 10.2071C7.48043 10.3946 7.73478 10.5 8 10.5Z" fill="white"/>
<path d="M8 15.5H12C12.2652 15.5 12.5196 15.3947 12.7071 15.2071C12.8946 15.0196 13 14.7652 13 14.5C13 14.2348 12.8946 13.9804 12.7071 13.7929C12.5196 13.6054 12.2652 13.5 12 13.5H8C7.73478 13.5 7.48043 13.6054 7.29289 13.7929C7.10536 13.9804 7 14.2348 7 14.5C7 14.7652 7.10536 15.0196 7.29289 15.2071C7.48043 15.3947 7.73478 15.5 8 15.5Z" fill="white"/>
</svg>
