<svg width="228" height="235" viewBox="0 0 228 235" fill="none" xmlns="http://www.w3.org/2000/svg">
<path d="M87.2263 9.74839L91.4055 25.3452L73.324 30.1902L69.1448 14.5933C67.7607 9.42763 69.0675 4.58404 72.0618 3.78172L79.2944 1.84376C82.2923 1.04047 85.8422 4.58272 87.2263 9.74839Z" fill="#CECECE"/>
<path d="M39.9584 96.8848L41.8566 118.142L49.4283 202.931H173.275L182.739 96.8848H39.9584Z" fill="#04764E"/>
<path d="M135.718 125.539C144.001 133.821 139.806 151.446 126.349 164.903C112.887 178.366 95.2616 182.56 86.9794 174.277C78.6972 165.995 82.8913 148.37 96.3539 134.913C109.811 121.45 127.436 117.256 135.718 125.539Z" fill="#30C691"/>
<path d="M10.6047 155.21C16.4638 155.21 21.2094 159.956 21.2094 165.815C21.2094 171.674 16.4638 176.42 10.6047 176.42C4.75094 176.42 6.10352e-05 171.674 6.10352e-05 165.815C6.10352e-05 159.956 4.75094 155.21 10.6047 155.21Z" fill="#04764E"/>
<path d="M214.744 91.5825C222.067 91.5825 228 97.5158 228 104.838C228 112.161 222.067 118.094 214.744 118.094C207.421 118.094 201.488 112.161 201.488 104.838C201.488 97.5158 207.421 91.5825 214.744 91.5825Z" fill="#04764E" fill-opacity="0.19"/>
<path d="M180.279 36.3058V43.8616H42.4186V36.3058C42.4186 28.7659 48.5322 22.6523 56.0721 22.6523H68.9303H95.4419H166.626C174.165 22.6523 180.279 28.7659 180.279 36.3058Z" fill="#383838"/>
<path d="M196.186 55.5267V65.0709H185.581H37.1164H26.5117V55.5267C26.5117 49.0844 31.7345 43.8616 38.1768 43.8616H42.4187H180.279H184.521C190.963 43.8616 196.186 49.0844 196.186 55.5267Z" fill="#797979"/>
<path d="M49.4283 202.931H173.275L171.933 217.937C171.085 227.454 163.11 234.745 153.555 234.745H69.1423C59.5875 234.745 51.6128 227.454 50.7645 217.937L41.8566 118.142L49.4283 202.931Z" fill="#D9D9D9"/>
<path d="M185.581 65.0709L182.739 96.8848H39.9583L37.1163 65.0709H185.581Z" fill="#D9D9D9"/>
<path d="M222.698 43.8616C219.771 43.8616 217.395 46.237 217.395 49.1639C217.395 52.0908 219.771 54.4662 222.698 54.4662C225.624 54.4662 228 52.0908 228 49.1639C228 46.237 225.624 43.8616 222.698 43.8616Z" fill="#43434A"/>
<path d="M217.395 155.21C214.468 155.21 212.093 157.586 212.093 160.513C212.093 163.44 214.468 165.815 217.395 165.815C220.322 165.815 222.698 163.44 222.698 160.513C222.698 157.586 220.322 155.21 217.395 155.21Z" fill="#43434A"/>
<path d="M201.488 208.234C198.561 208.234 196.186 210.609 196.186 213.536C196.186 216.463 198.561 218.838 201.488 218.838C204.415 218.838 206.791 216.463 206.791 213.536C206.791 210.609 204.415 208.234 201.488 208.234Z" fill="#43434A"/>
<path d="M201.488 6.74535C201.488 3.81846 199.113 1.44302 196.186 1.44302C193.259 1.44302 190.884 3.81846 190.884 6.74535C190.884 9.67223 193.259 12.0477 196.186 12.0477C199.113 12.0477 201.488 9.67223 201.488 6.74535Z" fill="#43434A"/>
<path d="M26.5116 197.629C23.5847 197.629 21.2093 200.004 21.2093 202.931C21.2093 205.858 23.5847 208.234 26.5116 208.234C29.4385 208.234 31.8139 205.858 31.8139 202.931C31.8139 200.004 29.4385 197.629 26.5116 197.629Z" fill="#43434A"/>
<path d="M26.5117 6.74535C26.5117 3.81846 24.1362 1.44302 21.2094 1.44302C18.2825 1.44302 15.907 3.81846 15.907 6.74535C15.907 9.67223 18.2825 12.0477 21.2094 12.0477C24.1362 12.0477 26.5117 9.67223 26.5117 6.74535Z" fill="#43434A"/>
<path d="M10.6046 86.2802C7.67775 86.2802 5.30231 88.6556 5.30231 91.5825C5.30231 94.5094 7.67775 96.8848 10.6046 96.8848C13.5315 96.8848 15.907 94.5094 15.907 91.5825C15.907 88.6556 13.5315 86.2802 10.6046 86.2802Z" fill="#43434A"/>
<path d="M104.948 156.308C105.984 157.343 107.341 157.862 108.698 157.862C110.055 157.862 111.412 157.343 112.447 156.308L138.7 130.056C138.003 128.356 137.013 126.833 135.718 125.538C134.424 124.243 132.901 123.253 131.201 122.557L104.948 148.809C102.878 150.88 102.878 154.238 104.948 156.308Z" fill="#6AECBE"/>
<path d="M132.558 176.42C129.631 176.42 127.256 178.795 127.256 181.722C127.256 184.649 129.631 187.024 132.558 187.024C135.485 187.024 137.86 184.649 137.86 181.722C137.86 178.795 135.485 176.42 132.558 176.42Z" fill="#239D72"/>
<path d="M79.5349 112.792H42.4187C42.0655 112.792 41.7214 112.828 41.3879 112.894L41.8566 118.141L42.3253 123.391C42.3566 123.392 42.3874 123.396 42.4187 123.396H79.5349C82.4634 123.396 84.8372 121.021 84.8372 118.094C84.8372 115.166 82.4634 112.792 79.5349 112.792Z" fill="#239D72"/>
<path d="M174.977 176.42H148.465C145.537 176.42 143.163 178.794 143.163 181.722C143.163 184.65 145.537 187.024 148.465 187.024H174.694L175.636 176.465C175.42 176.438 175.2 176.42 174.977 176.42Z" fill="#239D72"/>
</svg>
