<svg width="24" height="24" viewBox="0 0 24 24" fill="none" xmlns="http://www.w3.org/2000/svg">
<g clip-path="url(#clip0)">
<path d="M15.7 11.7172C16.6839 10.9478 17.4031 9.89058 17.7575 8.69293C18.1118 7.49528 18.0836 6.2169 17.6767 5.03606C17.2698 3.85523 16.5046 2.8308 15.4877 2.10563C14.4708 1.38045 13.253 0.990694 12.004 0.990694C10.755 0.990694 9.53719 1.38045 8.52031 2.10563C7.50342 2.8308 6.73819 3.85523 6.33131 5.03606C5.92443 6.2169 5.89619 7.49528 6.25053 8.69293C6.60487 9.89058 7.32413 10.9478 8.308 11.7172C6.44917 12.4568 4.85467 13.7365 3.73027 15.3912C2.60587 17.0459 2.00318 18.9996 2 21.0002V22.0002C2 22.2654 2.10536 22.5197 2.29289 22.7073C2.48043 22.8948 2.73478 23.0002 3 23.0002H21C21.2652 23.0002 21.5196 22.8948 21.7071 22.7073C21.8946 22.5197 22 22.2654 22 22.0002V21.0002C21.9975 19.0005 21.3959 17.0475 20.273 15.3929C19.1501 13.7383 17.5573 12.458 15.7 11.7172ZM8 7.00017C8 6.20904 8.2346 5.43568 8.67412 4.77789C9.11365 4.12009 9.73836 3.6074 10.4693 3.30465C11.2002 3.0019 12.0044 2.92269 12.7804 3.07703C13.5563 3.23137 14.269 3.61233 14.8284 4.17174C15.3878 4.73115 15.7688 5.44388 15.9231 6.21981C16.0775 6.99573 15.9983 7.8 15.6955 8.5309C15.3928 9.2618 14.8801 9.88652 14.2223 10.326C13.5645 10.7656 12.7911 11.0002 12 11.0002C10.9391 11.0002 9.92172 10.5787 9.17157 9.82859C8.42143 9.07845 8 8.06103 8 7.00017ZM4 21.0002C4 18.8784 4.84285 16.8436 6.34315 15.3433C7.84344 13.843 9.87827 13.0002 12 13.0002C14.1217 13.0002 16.1566 13.843 17.6569 15.3433C19.1571 16.8436 20 18.8784 20 21.0002H4Z" fill="#B0ACB3"/>
</g>
<defs>
<clipPath id="clip0">
<rect width="24" height="24" fill="white" transform="translate(0 0.000167847)"/>
</clipPath>
</defs>
</svg>
