<svg width="156" height="108" viewBox="0 0 156 108" fill="none" xmlns="http://www.w3.org/2000/svg">
<path d="M150.313 32.5075C149.506 31.4328 148.968 30.6269 148.162 29.8209C139.018 20.4179 124.227 18.5373 108.63 24.7164C102.982 10.7463 92.7634 1.61194 80.9308 0C79.8551 0 78.5105 0 77.4348 0C64.7954 0 53.2318 9.13433 46.7776 23.9104C33.3315 18.5373 20.1542 19.3433 11.0109 26.3284C9.93517 27.1343 9.1284 27.6716 8.32163 28.7463C-5.66236 42.7164 -1.62851 69.8508 17.465 89.194C29.0287 101.015 43.5505 107.463 56.1899 107.463C62.913 107.731 76.628 100.209 77.4348 99.403C83.0822 105.045 90.612 108 98.6797 108H99.2176C112.126 108 126.379 101.552 137.405 90.806C155.96 72.2687 161.339 47.5522 150.313 32.5075ZM144.128 33.5821C142.514 34.6567 140.632 35.4627 138.749 35.7313C134.984 36.2687 131.219 37.8806 128.53 40.8358C125.572 43.5224 123.69 47.0149 123.152 51.0448C122.883 54 121.538 56.4179 119.387 58.5672C117.504 60.4478 114.815 61.791 112.126 62.0597C112.933 58.0299 113.202 53.7313 113.202 49.7015C113.202 42.9851 112.126 36.5373 110.243 30.3582C123.69 24.4478 136.598 25.791 144.128 33.5821ZM104.596 29.2836C106.747 35.7313 108.092 42.4478 108.092 49.1642C108.092 54.2687 107.554 59.6418 106.21 64.4776C101.907 81.1343 90.881 92.6866 78.5105 93.2239H77.4348C77.4348 92.6866 79.0483 89.194 79.8551 88.1194C84.6957 81.6716 84.6957 72.806 79.8551 66.3582C78.7794 65.0149 78.2416 63.6716 77.7037 62.0597C77.1659 60.4478 77.4348 59.1045 77.4348 58.5672C77.4348 58.0299 77.4348 55.8806 77.7037 55.3433C77.9727 54.806 79.3173 51.3134 79.8551 50.5075C84.6957 44.0597 84.6957 35.194 79.8551 28.7463C76.3591 24.1791 76.3591 17.7313 79.8551 12.8955C81.4687 10.7463 82.5443 8.0597 83.0822 5.37314C92.2256 8.59702 100.293 17.194 104.596 29.2836ZM77.4348 5.37314C77.1659 7.25373 76.3591 9.13433 75.2834 10.4776C70.7117 16.9254 70.7117 25.791 75.2834 32.2388C78.7794 36.806 78.7794 43.2537 75.2834 48.0896C74.4767 49.1642 72.8631 52.6567 72.5942 52.9254C72.3253 53.194 71.7874 57.4925 71.7874 58.8358V61.2537C71.7874 61.791 73.6699 67.9702 75.0145 69.8507C78.5105 74.4179 78.5105 80.8657 75.0145 85.7015C73.9388 87.3134 71.7874 92.4179 71.7874 93.2239H71.2496C63.1819 90.806 56.1899 83.8209 51.6182 73.6119C48.3911 66.0896 46.7776 58.0299 46.7776 49.9701C46.7776 42.7164 48.1222 35.4627 50.5425 28.7463C56.1899 13.9701 66.409 5.37314 77.4348 5.37314ZM44.8951 28.7463C42.7438 35.4627 41.6681 42.4478 41.6681 49.4328C41.6681 51.0448 41.6681 52.6567 41.937 54.2687C41.6681 53.7313 41.1302 53.4627 40.5924 52.9254C37.9031 49.9702 34.4072 48.3582 30.3733 47.8209C24.7259 47.0149 20.1542 42.4478 19.3475 36.5373C19.0785 33.8507 18.0029 31.1642 16.3893 29.0149C24.1881 24.7164 34.4072 24.4478 44.8951 28.7463ZM21.2299 84.8955C4.28779 67.7015 0.253946 44.0597 12.0866 32.2388C13.1622 33.8507 13.7001 35.7313 13.969 37.6119C15.0447 45.403 21.2299 51.8507 29.0287 53.194C34.6761 54 39.2478 58.5672 40.0545 64.209C40.5924 67.9702 42.2059 71.7314 45.1641 74.4179C45.7019 74.9552 46.2398 75.4925 47.0465 76.0299C52.1561 87.3134 60.4927 95.1045 69.636 97.7911H69.905C57.5345 105.851 36.5585 100.478 21.2299 84.8955ZM133.909 86.2388C123.69 96.1791 110.243 102.09 98.9486 102.09C93.8391 102.09 88.9985 100.746 84.6957 98.0597C96.5283 94.8358 106.478 83.5522 110.781 67.7015C111.588 67.4328 112.395 67.1642 113.202 67.1642C116.966 66.6269 120.731 65.0149 123.421 62.0597C126.379 59.3731 128.261 55.8806 128.799 51.8507C129.068 48.8955 130.413 46.4776 132.564 44.3284C134.446 42.4478 137.136 41.1045 139.825 40.8358C142.514 40.5672 145.203 39.4925 147.355 38.1493C154.616 51.0448 148.968 71.4627 133.909 86.2388Z" fill="#F7E89E"/>
</svg>
